<svg width="286" height="148" viewBox="0 0 286 148" fill="none" xmlns="http://www.w3.org/2000/svg">
<g opacity="0.5">
<rect x="0.500244" y="0.500061" width="285" height="147" stroke="#010101"/>
<g style="mix-blend-mode:luminosity" clip-path="url(#clip0)">
<path d="M143.5 101.837C172.495 101.837 196 89.5614 196 74.4186C196 59.2758 172.495 47.0001 143.5 47.0001C114.505 47.0001 91.0002 59.2758 91.0002 74.4186C91.0002 89.5614 114.505 101.837 143.5 101.837Z" fill="url(#paint0_radial)"/>
<path d="M143.5 99.8001C171.363 99.8001 193.949 88.4364 193.949 74.4186C193.949 60.4008 171.363 49.0371 143.5 49.0371C115.638 49.0371 93.051 60.4008 93.051 74.4186C93.051 88.4364 115.638 99.8001 143.5 99.8001Z" fill="#6181B6"/>
<path d="M153.713 82.6483L156.215 69.8557C156.789 66.9631 156.297 64.8038 154.821 63.4594C153.385 62.1557 150.924 61.5038 147.315 61.5038H142.967L144.198 55.1482C144.239 54.9038 144.198 54.6594 144.033 54.4557C143.869 54.252 143.664 54.1705 143.418 54.1705H137.43C137.02 54.1705 136.692 54.4557 136.61 54.8223L133.944 68.389C133.698 66.8408 133.123 65.5371 132.139 64.4779C130.375 62.4816 127.627 61.4631 123.895 61.4631H112.369C111.959 61.4631 111.631 61.7482 111.549 62.1149L106.176 89.6557C106.135 89.9001 106.176 90.1446 106.34 90.3483C106.504 90.552 106.709 90.6334 106.955 90.6334H112.985C113.395 90.6334 113.723 90.3483 113.805 89.9816L115.117 83.3408H119.588C121.926 83.3408 123.936 83.0964 125.453 82.6075C127.053 82.0779 128.489 81.2223 129.76 80.0408C130.785 79.1038 131.647 78.0445 132.303 76.9038L131.237 82.4038C131.196 82.6483 131.237 82.8927 131.401 83.0964C131.565 83.3001 131.77 83.3816 132.016 83.3816H138.004C138.414 83.3816 138.742 83.0964 138.825 82.7297L141.778 67.6557H145.879C147.643 67.6557 148.135 67.9816 148.299 68.1445C148.422 68.2668 148.668 68.7557 148.381 70.2631L146.002 82.4445C145.961 82.689 146.002 82.9334 146.166 83.1371C146.33 83.3408 146.535 83.4223 146.782 83.4223H152.934C153.303 83.3001 153.631 83.0149 153.713 82.6483ZM125.987 72.0557C125.617 73.9705 124.92 75.3557 123.895 76.1297C122.869 76.9038 121.188 77.3112 118.973 77.3112H116.307L118.235 67.452H121.68C124.223 67.452 125.248 67.9816 125.658 68.4297C126.192 69.0816 126.315 70.3445 125.987 72.0557Z" fill="white"/>
<path d="M179.307 64.4779C177.543 62.4816 174.795 61.4631 171.063 61.4631H159.455C159.045 61.4631 158.717 61.7483 158.635 62.1149L153.262 89.6149C153.221 89.8594 153.262 90.1038 153.426 90.3075C153.59 90.5112 153.795 90.5927 154.041 90.5927H160.071C160.481 90.5927 160.809 90.3075 160.891 89.9408L162.203 83.3001H166.674C169.012 83.3001 171.022 83.0557 172.539 82.5668C174.139 82.0371 175.575 81.1816 176.846 80.0001C177.912 79.0223 178.815 77.9223 179.471 76.7409C180.127 75.5594 180.619 74.2557 180.907 72.8297C181.604 69.2853 181.071 66.5149 179.307 64.4779ZM173.032 72.0557C172.662 73.9705 171.965 75.3557 170.94 76.1297C169.914 76.9038 168.233 77.3112 166.018 77.3112H163.352L165.28 67.452H168.725C171.268 67.452 172.293 67.9816 172.703 68.4297C173.278 69.0816 173.401 70.3446 173.032 72.0557Z" fill="white"/>
<path d="M121.68 66.6371C123.977 66.6371 125.494 67.0445 126.274 67.9001C127.053 68.7556 127.217 70.1815 126.807 72.2186C126.397 74.3371 125.576 75.8852 124.387 76.7815C123.198 77.6778 121.393 78.126 118.973 78.126H115.323L117.578 66.6371H121.68ZM106.996 89.7778H113.026L114.461 82.4852H119.629C121.926 82.4852 123.772 82.2408 125.248 81.7519C126.725 81.263 128.037 80.4889 129.268 79.3482C130.293 78.4112 131.114 77.3926 131.729 76.2926C132.344 75.1926 132.795 73.9704 133.041 72.626C133.698 69.3667 133.205 66.8408 131.606 65.0075C130.006 63.1741 127.463 62.2778 123.977 62.2778H112.369L106.996 89.7778Z" fill="#010101"/>
<path d="M137.471 54.9852H143.459L142.024 62.2778H147.356C150.719 62.2778 153.016 62.8482 154.287 64.0297C155.559 65.2112 155.928 67.0852 155.436 69.6926L152.934 82.4852H146.864L149.242 70.3037C149.53 68.9186 149.406 67.9815 148.955 67.4926C148.504 67.0037 147.479 66.7186 145.961 66.7186H141.162L138.086 82.4852H132.098L137.471 54.9852Z" fill="#010101"/>
<path d="M168.725 66.6371C171.022 66.6371 172.539 67.0445 173.319 67.9001C174.098 68.7556 174.262 70.1815 173.852 72.2186C173.442 74.3371 172.621 75.8852 171.432 76.7815C170.242 77.6778 168.438 78.126 166.018 78.126H162.367L164.623 66.6371H168.725ZM154.041 89.7778H160.071L161.506 82.4852H166.674C168.971 82.4852 170.817 82.2408 172.293 81.7519C173.77 81.263 175.082 80.4889 176.313 79.3482C177.338 78.4112 178.158 77.3926 178.774 76.2926C179.389 75.1926 179.84 73.9704 180.086 72.626C180.742 69.3667 180.25 66.8408 178.651 65.0075C177.051 63.1741 174.508 62.2778 171.022 62.2778H159.414L154.041 89.7778Z" fill="#010101"/>
</g>
</g>
<defs>
<radialGradient id="paint0_radial" cx="0" cy="0" r="1" gradientUnits="userSpaceOnUse" gradientTransform="translate(122.521 56.6425) scale(68.9453 68.4832)">
<stop stop-color="white"/>
<stop offset="0.5" stop-color="#4C6B97"/>
<stop offset="1" stop-color="#231F20"/>
</radialGradient>
<clipPath id="clip0">
<rect width="105" height="55" fill="white" transform="translate(91.0002 47.0001)"/>
</clipPath>
</defs>
</svg>
