<svg width="286" height="148" viewBox="0 0 286 148" fill="none" xmlns="http://www.w3.org/2000/svg">
<g opacity="0.5">
<rect x="0.5" y="0.5" width="285" height="147" stroke="#010101"/>
<g style="mix-blend-mode:luminosity" clip-path="url(#clip0)">
<path fill-rule="evenodd" clip-rule="evenodd" d="M142.998 42.1835C151.297 42.1835 158.854 45.3638 164.518 50.5707C161.742 50.4963 158.971 52.1466 158.856 55.9257C158.623 63.5656 167.992 65.193 162.944 80.5601L158.768 93.2713L147.394 59.7693C147.218 59.2507 147.423 58.9556 148.061 58.9556H151.276C151.443 58.9556 151.58 58.8129 151.58 58.6381V56.7337C151.58 56.559 151.443 56.4091 151.276 56.4163C145.187 56.6826 139.134 56.6844 133.117 56.4163C132.949 56.4092 132.813 56.5596 132.813 56.7344V58.6388C132.813 58.8134 132.95 58.9562 133.117 58.9562H136.35C137.069 58.9562 137.27 59.1959 137.44 59.6594L142.113 72.4394L135.083 93.6657L123.528 59.6308C123.385 59.2039 123.558 58.956 123.969 58.956H127.653C127.82 58.956 127.957 58.8134 127.957 58.6386V56.7342C127.957 56.5595 127.82 56.4081 127.653 56.4168C123.788 56.6221 119.908 56.6634 116.294 56.7005C121.966 47.9641 131.806 42.1829 142.996 42.1829L142.996 42.1828L142.998 42.1835ZM170.979 58.8485C173.423 63.3527 174.812 68.5132 174.812 73.9965C174.812 86.0308 168.125 96.505 158.267 101.911L168.189 73.8088C169.726 69.4596 171.153 63.5817 170.978 58.8485H170.978H170.979ZM153.649 103.98C150.318 105.165 146.734 105.811 142.998 105.811C139.779 105.811 136.673 105.331 133.745 104.443L143.546 76.3559L153.649 103.982L153.649 103.98ZM129.384 102.757C118.626 97.6543 111.184 86.6933 111.184 73.9979C111.184 69.2917 112.207 64.8241 114.042 60.8046L129.385 102.757L129.385 102.757L129.384 102.757ZM142.997 39.198C162.212 39.198 177.795 54.7815 177.795 73.9965C177.795 93.2115 162.212 108.795 142.997 108.795C123.782 108.795 108.198 93.2115 108.198 73.9965C108.198 54.7815 123.782 39.198 142.997 39.198ZM142.997 36.9985C163.427 36.9985 179.996 53.5675 179.996 73.9974C179.996 94.4272 163.427 110.996 142.997 110.996C122.567 110.996 105.998 94.4272 105.998 73.9974C105.998 53.5675 122.567 36.9985 142.997 36.9985Z" fill="#3AC8E8"/>
</g>
</g>
<defs>
<clipPath id="clip0">
<rect width="74" height="74" fill="white" transform="translate(106 37)"/>
</clipPath>
</defs>
</svg>
