<svg width="286" height="148" viewBox="0 0 286 148" fill="none" xmlns="http://www.w3.org/2000/svg">
<g opacity="0.5">
<rect x="0.5" y="0.5" width="285" height="147" stroke="#010101"/>
<g style="mix-blend-mode:luminosity" clip-path="url(#clip0)">
<path d="M110.079 53.1637C103.437 63.4805 104.265 76.9033 109.337 87.8664C109.458 88.1294 109.585 88.3877 109.709 88.647C109.789 88.8102 109.864 88.9784 109.947 89.1397C109.993 89.2368 110.046 89.3315 110.094 89.4243C110.181 89.5994 110.269 89.7651 110.359 89.936C110.517 90.236 110.679 90.5344 110.843 90.8327C110.935 90.9967 111.025 91.1606 111.119 91.3244C111.302 91.6437 111.49 91.9604 111.682 92.2751C111.762 92.4096 111.839 92.5441 111.921 92.674C112.186 93.1008 112.456 93.5268 112.735 93.9447C112.742 93.9551 112.75 93.9665 112.758 93.9769C112.802 94.0446 112.851 94.1105 112.896 94.1773C113.137 94.5372 113.386 94.892 113.637 95.2441C113.73 95.3718 113.824 95.5 113.917 95.6283C114.142 95.9337 114.37 96.2365 114.603 96.539C114.69 96.6518 114.777 96.7653 114.865 96.8763C115.176 97.2729 115.494 97.6683 115.82 98.0561C115.826 98.0631 115.833 98.0709 115.839 98.0778C115.852 98.0943 115.864 98.1047 115.876 98.1204C116.193 98.4951 116.518 98.8621 116.847 99.2281C116.949 99.3407 117.053 99.4544 117.158 99.5672C117.413 99.8438 117.672 100.115 117.933 100.389C118.039 100.497 118.145 100.609 118.25 100.714C118.6 101.07 118.952 101.418 119.312 101.758C119.319 101.765 119.323 101.77 119.329 101.773C119.39 101.832 119.453 101.888 119.514 101.943C119.831 102.24 120.154 102.535 120.479 102.825C120.611 102.94 120.745 103.055 120.879 103.169C121.144 103.399 121.412 103.626 121.683 103.849C121.826 103.966 121.969 104.085 122.113 104.203C122.411 104.438 122.712 104.673 123.016 104.902C123.126 104.988 123.233 105.071 123.345 105.154C123.375 105.177 123.403 105.202 123.435 105.224C123.723 105.437 124.017 105.645 124.311 105.85C124.437 105.941 124.563 106.035 124.69 106.124C125.142 106.432 125.6 106.737 126.063 107.033C126.189 107.11 126.315 107.186 126.442 107.263C126.782 107.476 127.124 107.684 127.472 107.888C127.659 107.997 127.852 108.1 128.041 108.204C128.287 108.344 128.53 108.485 128.779 108.618C128.835 108.649 128.894 108.679 128.95 108.708C129.049 108.76 129.15 108.811 129.251 108.865C129.637 109.065 130.026 109.26 130.419 109.45C130.502 109.49 130.583 109.53 130.666 109.569C131.116 109.781 131.57 109.987 132.029 110.182C132.139 110.23 132.25 110.276 132.361 110.323C132.785 110.5 133.215 110.674 133.646 110.838C133.701 110.859 133.754 110.878 133.808 110.898C134.281 111.077 134.76 111.243 135.242 111.405C135.356 111.442 135.472 111.482 135.588 111.518C136.078 111.677 136.562 111.867 137.068 111.969C169.186 118.299 178.516 91.107 178.516 91.107C170.681 102.14 156.772 105.051 143.594 101.811C143.094 101.689 142.61 101.521 142.123 101.365C141.999 101.325 141.878 101.285 141.756 101.244C141.281 101.087 140.809 100.921 140.34 100.747C140.276 100.722 140.211 100.696 140.145 100.671C139.725 100.511 139.31 100.343 138.897 100.17C138.78 100.12 138.663 100.073 138.547 100.022C138.094 99.8288 137.643 99.6266 137.199 99.4159C137.107 99.3741 137.019 99.33 136.929 99.2865C136.547 99.1 136.169 98.9119 135.791 98.7157C135.683 98.6586 135.574 98.6031 135.463 98.5451C135.168 98.3897 134.875 98.224 134.584 98.0618C134.388 97.9508 134.19 97.8451 133.997 97.7296C133.64 97.5232 133.291 97.3089 132.943 97.0904C132.824 97.0184 132.705 96.9498 132.586 96.876C132.123 96.5812 131.666 96.2759 131.213 95.9662C131.088 95.8804 130.966 95.7885 130.843 95.7C130.515 95.4709 130.188 95.2385 129.866 94.9973C129.759 94.921 129.656 94.836 129.551 94.7588C129.24 94.522 128.933 94.281 128.627 94.0372C128.489 93.927 128.353 93.8125 128.218 93.7022C127.938 93.4708 127.66 93.2384 127.385 92.9979C127.261 92.8912 127.136 92.7837 127.013 92.6761C126.663 92.3648 126.317 92.0526 125.975 91.7315C125.939 91.6968 125.901 91.6639 125.862 91.6283C125.492 91.2771 125.129 90.917 124.771 90.5553C124.666 90.4478 124.565 90.3437 124.463 90.2353C124.197 89.963 123.936 89.6871 123.679 89.4052C123.577 89.2942 123.473 89.184 123.372 89.0739C123.045 88.7113 122.724 88.3453 122.41 87.9732C122.394 87.955 122.378 87.9385 122.362 87.9185C122.03 87.5255 121.705 87.124 121.387 86.718C121.3 86.607 121.217 86.4995 121.131 86.3901C120.894 86.0812 120.659 85.768 120.429 85.4516C120.342 85.3388 120.256 85.2216 120.171 85.1055C119.895 84.7177 119.625 84.3319 119.36 83.9379C112.043 73.1529 109.415 58.2752 115.262 46.0571" fill="#010101"/>
<path d="M130.695 44.4715C125.892 51.9424 126.153 61.9416 129.899 69.8429C130.528 71.1673 131.234 72.452 132.024 73.6758C132.743 74.7905 133.541 76.1167 134.495 77.0117C134.842 77.4237 135.204 77.8262 135.573 78.221C135.667 78.3251 135.762 78.4232 135.858 78.5254C136.216 78.9002 136.581 79.2705 136.958 79.6296C136.974 79.6435 136.988 79.6598 137.003 79.6712C137.007 79.6763 137.011 79.6782 137.014 79.6833C137.431 80.0781 137.862 80.4588 138.3 80.8327C138.397 80.9125 138.493 80.9966 138.591 81.079C139.03 81.4424 139.477 81.8007 139.936 82.1408C139.95 82.151 139.962 82.1616 139.975 82.1738C140.177 82.3238 140.384 82.4651 140.589 82.6101C140.687 82.6796 140.781 82.7533 140.88 82.8182C141.208 83.0448 141.539 83.266 141.877 83.4784C141.925 83.5106 141.972 83.5365 142.018 83.5661C142.309 83.7473 142.604 83.926 142.899 84.0986C143.003 84.1619 143.108 84.2165 143.213 84.2755C143.417 84.391 143.621 84.5079 143.83 84.6207C143.86 84.6364 143.892 84.6519 143.922 84.6658C144.345 84.8912 144.773 85.1082 145.209 85.3128C145.301 85.357 145.398 85.3968 145.493 85.4394C145.841 85.599 146.193 85.7553 146.546 85.9018C146.696 85.9634 146.848 86.0215 146.998 86.0815C147.318 86.2099 147.641 86.3276 147.966 86.4457C148.113 86.4959 148.257 86.5481 148.403 86.5965C148.865 86.7509 149.321 86.9468 149.803 87.0335C174.601 91.4747 180.326 70.8375 180.326 70.8375C175.165 78.8695 165.171 82.7044 154.506 79.7118C154.033 79.5774 153.566 79.4308 153.102 79.2729C152.96 79.2262 152.821 79.1758 152.68 79.1254C152.35 79.0101 152.022 78.887 151.697 78.7596C151.548 78.7013 151.4 78.6425 151.254 78.5817C150.897 78.4334 150.546 78.2806 150.196 78.1202C150.101 78.076 150.005 78.0369 149.912 77.9901C149.474 77.7846 149.043 77.5669 148.617 77.3413C148.399 77.2249 148.184 77.1028 147.969 76.984C147.845 76.9138 147.719 76.8443 147.595 76.7749C147.318 76.6126 147.044 76.4452 146.773 76.2744C146.71 76.2346 146.642 76.1973 146.578 76.1546C146.241 75.9422 145.911 75.7237 145.583 75.4989C145.482 75.4287 145.385 75.3532 145.284 75.282C145.068 75.1304 144.852 74.9768 144.64 74.8215C144.183 74.4816 143.738 74.1242 143.3 73.7616C143.198 73.6757 143.097 73.5915 142.998 73.5056C138.329 69.5217 134.63 64.0771 132.871 57.9047C131.027 51.5016 131.424 44.316 134.618 38.4836" fill="#010101"/>
<path d="M148.033 37.9774C145.202 42.4809 144.924 48.074 146.889 53.0484C148.96 58.3283 153.206 62.4701 158.161 64.433C158.365 64.5154 158.569 64.5891 158.777 64.6646C158.867 64.695 158.956 64.728 159.048 64.7566C159.34 64.8563 159.63 64.9718 159.931 65.0332C173.624 67.893 177.338 57.4382 178.327 55.8994C175.073 60.9623 169.606 62.1777 162.898 60.4186C162.367 60.278 161.785 60.0717 161.274 59.8756C160.619 59.624 159.974 59.336 159.347 59.0108C158.156 58.3923 157.021 57.6412 155.967 56.7824C149.965 51.8591 146.235 42.4678 150.153 34.819" fill="#010101"/>
</g>
</g>
<defs>
<clipPath id="clip0">
<rect width="75.7732" height="81.9" fill="white" transform="translate(105 33)"/>
</clipPath>
</defs>
</svg>
